<svg width="608.000000" height="508.000000" viewBox="0 0 608 508" fill="none" xmlns="http://www.w3.org/2000/svg" xmlns:xlink="http://www.w3.org/1999/xlink">
	<desc>
			Created with Pixso.
	</desc>
	<defs>
		<filter id="filter_13_2186_dd" x="0.000000" y="0.000000" width="608.000000" height="508.000000" filterUnits="userSpaceOnUse" color-interpolation-filters="sRGB">
			<feFlood flood-opacity="0" result="BackgroundImageFix"/>
			<feColorMatrix in="SourceAlpha" type="matrix" values="0 0 0 0 0 0 0 0 0 0 0 0 0 0 0 0 0 0 127 0" result="hardAlpha"/>
			<feOffset dx="0" dy="4"/>
			<feGaussianBlur stdDeviation="1.33333"/>
			<feComposite in2="hardAlpha" operator="out" k2="-1" k3="1"/>
			<feColorMatrix type="matrix" values="0 0 0 0 0 0 0 0 0 0 0 0 0 0 0 0 0 0 0.25 0"/>
			<feBlend mode="normal" in2="BackgroundImageFix" result="effect_dropShadow_1"/>
			<feColorMatrix in="SourceAlpha" type="matrix" values="0 0 0 0 0 0 0 0 0 0 0 0 0 0 0 0 0 0 127 0" result="hardAlpha"/>
			<feOffset dx="0" dy="4"/>
			<feGaussianBlur stdDeviation="1.33333"/>
			<feComposite in2="hardAlpha" operator="out" k2="-1" k3="1"/>
			<feColorMatrix type="matrix" values="0 0 0 0 0 0 0 0 0 0 0 0 0 0 0 0 0 0 0.25 0"/>
			<feBlend mode="normal" in2="effect_dropShadow_1" result="effect_dropShadow_2"/>
			<feBlend mode="normal" in="SourceGraphic" in2="effect_dropShadow_2" result="shape"/>
		</filter>
		<filter id="filter_13_2295_dd" x="108.910156" y="50.093506" width="390.026367" height="448.697266" filterUnits="userSpaceOnUse" color-interpolation-filters="sRGB">
			<feFlood flood-opacity="0" result="BackgroundImageFix"/>
			<feColorMatrix in="SourceAlpha" type="matrix" values="0 0 0 0 0 0 0 0 0 0 0 0 0 0 0 0 0 0 127 0" result="hardAlpha"/>
			<feMorphology radius="-14.4434" in="" result="BackgroundImageFix"/>
			<feOffset dx="0" dy="24.0724"/>
			<feGaussianBlur stdDeviation="26.8808"/>
			<feComposite in2="hardAlpha" operator="out" k2="-1" k3="1"/>
			<feColorMatrix type="matrix" values="0 0 0 0 0 0 0 0 0 0 0 0 0 0 0 0 0 0 0.3 0"/>
			<feBlend mode="normal" in2="BackgroundImageFix" result="effect_dropShadow_1"/>
			<feBlend mode="normal" in="SourceGraphic" in2="effect_dropShadow_1" result="shape"/>
		</filter>
		<clipPath id="clip13_2186">
			<rect id="Обложка карточки" rx="29.500000" width="599.000000" height="499.000000" transform="translate(4.500000 0.500000)" fill="white" fill-opacity="0"/>
		</clipPath>
	</defs>
	<g filter="url(#filter_13_2186_dd)">
		<rect id="Обложка карточки" rx="29.500000" width="599.000000" height="499.000000" transform="translate(4.500000 0.500000)" fill="#271A58" fill-opacity="1.000000"/>
		<g clip-path="url(#clip13_2186)">
			<rect id="Frame 2043683103" rx="29.500000" width="166.875168" height="222.833557" transform="translate(-68.329102 -165.469727) rotate(10.000000)" fill="#565EEF" fill-opacity="1.000000"/>
			<path id="?" d="M-10.86 -40.72Q-12.97 -38.54 -13.65 -34.72L-0.07 -32.33Q0.14 -33.55 0.75 -34.51Q1.18 -35.19 1.8 -35.74Q3.3 -37.09 6.28 -38.85Q9.01 -40.48 10.77 -41.86Q12.56 -43.25 14.04 -45.47Q15.55 -47.68 16.1 -50.79Q16.72 -54.3 15.72 -57.26Q14.79 -60.04 12.44 -62.34Q7.58 -67.09 -1.49 -68.69Q-9.57 -70.12 -15.83 -68.15Q-19.77 -66.91 -22.84 -64.54Q-24.65 -63.16 -26.15 -61.39L-15.85 -53.29Q-14.5 -54.87 -12.81 -55.84Q-12.01 -56.3 -11.13 -56.63Q-10.37 -56.91 -9.59 -57.07Q-7.55 -57.49 -5.34 -57.1Q-2.38 -56.58 -0.76 -54.91Q0.14 -53.99 0.43 -52.91Q0.67 -52.02 0.49 -51.02Q0.42 -50.63 0.29 -50.25Q-0.12 -49.12 -1.12 -48.2Q-2.43 -46.99 -4.99 -45.31Q-8.72 -42.91 -10.86 -40.72ZM-14.74 -15.29Q-12.98 -13.85 -10.42 -13.4Q-7.67 -12.91 -5.43 -13.76Q-4.55 -14.09 -3.75 -14.62Q-2.3 -15.59 -1.43 -16.93Q-0.59 -18.23 -0.3 -19.87Q0.05 -21.84 -0.48 -23.54Q-0.87 -24.82 -1.74 -25.94Q-2.21 -26.54 -2.77 -27.04Q-4.66 -28.74 -7.61 -29.26Q-10.59 -29.79 -12.95 -28.81Q-13.61 -28.53 -14.22 -28.14Q-15.37 -27.41 -16.15 -26.39Q-17.26 -24.94 -17.62 -22.92Q-17.91 -21.28 -17.57 -19.78Q-17.22 -18.22 -16.19 -16.81Q-15.55 -15.95 -14.74 -15.29Z" fill="#FFFFFF" fill-opacity="1.000000" fill-rule="evenodd"/>
			<path id="?" d="M-13.65 -34.72Q-12.97 -38.54 -10.86 -40.72Q-8.72 -42.91 -4.99 -45.31Q-2.43 -46.99 -1.12 -48.2Q0.21 -49.42 0.49 -51.02Q0.88 -53.24 -0.76 -54.91Q-2.38 -56.58 -5.34 -57.1Q-8.4 -57.64 -11.13 -56.63Q-13.87 -55.61 -15.85 -53.29L-26.15 -61.39Q-22.08 -66.18 -15.83 -68.15Q-9.57 -70.12 -1.49 -68.69Q7.58 -67.09 12.44 -62.34Q17.3 -57.58 16.1 -50.79Q15.55 -47.68 14.04 -45.47Q12.56 -43.25 10.77 -41.86Q9.01 -40.48 6.28 -38.85Q3.3 -37.09 1.8 -35.74Q0.29 -34.39 -0.07 -32.33L-13.65 -34.72ZM-10.42 -13.4Q-14.16 -14.06 -16.19 -16.81Q-18.21 -19.57 -17.62 -22.92Q-17.01 -26.37 -14.22 -28.14Q-11.42 -29.93 -7.61 -29.26Q-3.79 -28.59 -1.74 -25.94Q0.31 -23.31 -0.3 -19.87Q-0.9 -16.52 -3.75 -14.62Q-6.6 -12.72 -10.42 -13.4Z" stroke="#271A58" stroke-opacity="1.000000" stroke-width="0.806750"/>
			<rect id="Frame 2043683103" rx="29.500000" width="166.875168" height="222.833557" transform="translate(-68.329102 -165.469727) rotate(10.000000)" stroke="#271A58" stroke-opacity="1.000000" stroke-width="1.000000"/>
			<rect id="Frame 2043683100" rx="29.500000" width="166.875168" height="222.833557" transform="translate(106.700195 -134.607422) rotate(10.000000)" fill="#009EE4" fill-opacity="1.000000"/>
			<path id="?" d="M164.17 -9.86Q162.06 -7.68 161.38 -3.86L174.96 -1.47Q175.17 -2.68 175.78 -3.65Q176.21 -4.33 176.83 -4.88Q178.33 -6.23 181.31 -7.99Q184.04 -9.62 185.8 -11Q187.59 -12.39 189.07 -14.6Q190.58 -16.82 191.13 -19.93Q191.75 -23.44 190.75 -26.4Q189.82 -29.18 187.47 -31.48Q182.61 -36.23 173.54 -37.83Q165.46 -39.25 159.2 -37.29Q155.26 -36.04 152.19 -33.68Q150.38 -32.29 148.88 -30.52L159.18 -22.43Q160.53 -24.01 162.22 -24.98Q163.02 -25.44 163.9 -25.76Q164.66 -26.05 165.44 -26.21Q167.48 -26.63 169.69 -26.24Q172.65 -25.72 174.27 -24.05Q175.17 -23.13 175.46 -22.05Q175.7 -21.16 175.52 -20.16Q175.45 -19.76 175.32 -19.39Q174.91 -18.26 173.91 -17.34Q172.6 -16.13 170.04 -14.45Q166.31 -12.05 164.17 -9.86ZM160.29 15.58Q162.05 17.01 164.61 17.47Q167.36 17.95 169.6 17.11Q170.48 16.78 171.28 16.24Q172.73 15.28 173.6 13.93Q174.44 12.64 174.73 10.99Q175.08 9.02 174.55 7.32Q174.16 6.04 173.29 4.92Q172.82 4.32 172.26 3.82Q170.37 2.12 167.42 1.6Q164.44 1.08 162.08 2.06Q161.42 2.33 160.81 2.72Q159.66 3.46 158.88 4.47Q157.77 5.92 157.41 7.94Q157.12 9.58 157.46 11.08Q157.81 12.64 158.84 14.05Q159.48 14.92 160.29 15.58Z" fill="#FFFFFF" fill-opacity="1.000000" fill-rule="evenodd"/>
			<path id="?" d="M161.38 -3.86Q162.06 -7.68 164.17 -9.86Q166.31 -12.05 170.04 -14.45Q172.6 -16.13 173.91 -17.34Q175.24 -18.56 175.52 -20.16Q175.91 -22.38 174.27 -24.05Q172.65 -25.72 169.69 -26.24Q166.63 -26.78 163.9 -25.76Q161.16 -24.75 159.18 -22.43L148.88 -30.52Q152.95 -35.32 159.2 -37.29Q165.46 -39.25 173.54 -37.83Q182.61 -36.23 187.47 -31.48Q192.33 -26.72 191.13 -19.93Q190.58 -16.82 189.07 -14.6Q187.59 -12.39 185.8 -11Q184.04 -9.62 181.31 -7.99Q178.33 -6.23 176.83 -4.88Q175.32 -3.53 174.96 -1.47L161.38 -3.86ZM164.61 17.47Q160.87 16.81 158.84 14.05Q156.82 11.29 157.41 7.94Q158.02 4.5 160.81 2.72Q163.61 0.93 167.42 1.6Q171.24 2.28 173.29 4.92Q175.34 7.55 174.73 10.99Q174.13 14.34 171.28 16.24Q168.43 18.14 164.61 17.47Z" stroke="#271A58" stroke-opacity="1.000000" stroke-width="0.806750"/>
			<rect id="Frame 2043683100" rx="29.500000" width="166.875168" height="222.833557" transform="translate(106.700195 -134.607422) rotate(10.000000)" stroke="#271A58" stroke-opacity="1.000000" stroke-width="1.000000"/>
			<rect id="Frame 2043683094" rx="29.500000" width="166.875168" height="222.833557" transform="translate(281.729492 -103.745117) rotate(10.000000)" fill="#AD61FF" fill-opacity="1.000000"/>
			<path id="?" d="M337.98 21.03Q335.36 23.74 334.52 28.47L351.35 31.44Q351.61 29.93 352.37 28.73Q352.9 27.89 353.67 27.2Q355.53 25.53 359.23 23.35Q362.61 21.33 364.79 19.62Q367 17.89 368.85 15.15Q370.71 12.41 371.39 8.55Q372.16 4.2 370.93 0.53Q369.77 -2.91 366.86 -5.76Q360.84 -11.66 349.59 -13.64Q339.58 -15.41 331.81 -12.97Q326.93 -11.43 323.12 -8.5Q320.89 -6.78 319.02 -4.58L331.79 5.45Q333.46 3.5 335.56 2.29Q336.55 1.72 337.64 1.32Q338.58 0.97 339.56 0.77Q342.08 0.24 344.81 0.73Q348.48 1.37 350.5 3.44Q351.62 4.58 351.97 5.92Q352.27 7.02 352.05 8.26Q351.96 8.75 351.79 9.22Q351.29 10.62 350.05 11.76Q348.42 13.26 345.25 15.34Q340.63 18.31 337.98 21.03ZM333.16 52.56Q335.35 54.34 338.53 54.9Q341.93 55.5 344.71 54.45Q345.8 54.05 346.79 53.38Q348.59 52.19 349.67 50.52Q350.7 48.92 351.06 46.88Q351.5 44.43 350.85 42.32Q350.36 40.75 349.28 39.35Q348.7 38.61 348.01 37.99Q345.66 35.88 342.01 35.24Q338.31 34.59 335.39 35.8Q334.57 36.14 333.81 36.63Q332.38 37.54 331.41 38.8Q330.04 40.59 329.6 43.09Q329.24 45.13 329.66 46.99Q330.09 48.92 331.37 50.67Q332.16 51.74 333.16 52.56Z" fill="#FFFFFF" fill-opacity="1.000000" fill-rule="evenodd"/>
			<path id="?" d="M334.52 28.47Q335.36 23.74 337.98 21.03Q340.63 18.31 345.25 15.34Q348.42 13.26 350.05 11.76Q351.7 10.24 352.05 8.26Q352.53 5.51 350.5 3.44Q348.48 1.37 344.81 0.73Q341.03 0.06 337.64 1.32Q334.25 2.58 331.79 5.45L319.02 -4.58Q324.07 -10.52 331.81 -12.97Q339.58 -15.41 349.59 -13.64Q360.84 -11.66 366.86 -5.76Q372.89 0.13 371.39 8.55Q370.71 12.41 368.85 15.15Q367 17.89 364.79 19.62Q362.61 21.33 359.23 23.35Q355.53 25.53 353.67 27.2Q351.8 28.87 351.35 31.44L334.52 28.47ZM338.53 54.9Q333.89 54.08 331.37 50.67Q328.86 47.25 329.6 43.09Q330.35 38.82 333.81 36.63Q337.28 34.4 342.01 35.24Q346.74 36.07 349.28 39.35Q351.82 42.61 351.06 46.88Q350.33 51.03 346.79 53.38Q343.26 55.74 338.53 54.9Z" stroke="#271A58" stroke-opacity="1.000000" stroke-width="0.806750"/>
			<rect id="Frame 2043683094" rx="29.500000" width="166.875168" height="222.833557" transform="translate(281.729492 -103.745117) rotate(10.000000)" stroke="#271A58" stroke-opacity="1.000000" stroke-width="1.000000"/>
			<rect id="Frame 2043683095" rx="29.500000" width="166.875168" height="222.833557" transform="translate(456.758789 -72.882812) rotate(10.000000)" fill="#F25050" fill-opacity="1.000000"/>
			<path id="?" d="M513.01 51.9Q510.39 54.6 509.55 59.33L526.38 62.3Q526.64 60.79 527.4 59.59Q527.93 58.75 528.7 58.07Q530.56 56.4 534.26 54.22Q537.64 52.19 539.82 50.48Q542.03 48.76 543.87 46.01Q545.74 43.27 546.42 39.42Q547.19 35.06 545.96 31.39Q544.8 27.95 541.89 25.1Q535.86 19.21 524.62 17.22Q514.61 15.46 506.84 17.9Q501.96 19.44 498.15 22.37Q495.92 24.08 494.05 26.28L506.82 36.31Q508.49 34.36 510.59 33.15Q511.58 32.58 512.67 32.18Q513.61 31.83 514.59 31.63Q517.11 31.11 519.84 31.59Q523.51 32.23 525.53 34.3Q526.64 35.44 527 36.78Q527.3 37.88 527.08 39.12Q526.99 39.62 526.82 40.08Q526.32 41.48 525.08 42.63Q523.45 44.12 520.28 46.21Q515.65 49.17 513.01 51.9ZM508.19 83.42Q510.37 85.2 513.55 85.76Q516.96 86.36 519.74 85.32Q520.83 84.91 521.82 84.25Q523.62 83.05 524.7 81.38Q525.73 79.78 526.09 77.74Q526.52 75.3 525.88 73.18Q525.39 71.61 524.31 70.22Q523.73 69.47 523.04 68.85Q520.69 66.75 517.04 66.1Q513.34 65.45 510.42 66.66Q509.6 67 508.84 67.49Q507.41 68.4 506.44 69.66Q505.07 71.45 504.63 73.96Q504.26 75.99 504.69 77.85Q505.12 79.79 506.4 81.53Q507.19 82.6 508.19 83.42Z" fill="#FFFFFF" fill-opacity="1.000000" fill-rule="evenodd"/>
			<path id="?" d="M509.55 59.33Q510.39 54.6 513.01 51.9Q515.65 49.17 520.28 46.21Q523.45 44.12 525.08 42.63Q526.72 41.11 527.08 39.12Q527.56 36.38 525.53 34.3Q523.51 32.23 519.84 31.59Q516.06 30.92 512.67 32.18Q509.28 33.44 506.82 36.31L494.05 26.28Q499.1 20.34 506.84 17.9Q514.61 15.46 524.62 17.22Q535.86 19.21 541.89 25.1Q547.92 30.99 546.42 39.42Q545.74 43.27 543.87 46.01Q542.03 48.76 539.82 50.48Q537.64 52.19 534.26 54.22Q530.56 56.4 528.7 58.07Q526.83 59.74 526.38 62.3L509.55 59.33ZM513.55 85.76Q508.92 84.95 506.4 81.53Q503.89 78.11 504.63 73.96Q505.38 69.69 508.84 67.49Q512.31 65.27 517.04 66.1Q521.77 66.94 524.31 70.22Q526.85 73.47 526.09 77.74Q525.36 81.9 521.82 84.25Q518.29 86.6 513.55 85.76Z" stroke="#271A58" stroke-opacity="1.000000" stroke-width="0.806750"/>
			<rect id="Frame 2043683095" rx="29.500000" width="166.875168" height="222.833557" transform="translate(456.758789 -72.882812) rotate(10.000000)" stroke="#271A58" stroke-opacity="1.000000" stroke-width="1.000000"/>
			<rect id="Frame 2043683101" rx="29.500000" width="166.875168" height="222.833557" transform="translate(631.788086 -42.020508) rotate(10.000000)" fill="#009EE4" fill-opacity="1.000000"/>
			<path id="?" d="M689.26 82.73Q687.15 84.91 686.47 88.73L700.04 91.12Q700.26 89.9 700.87 88.94Q701.3 88.26 701.92 87.71Q703.42 86.36 706.4 84.6Q709.13 82.97 710.89 81.59Q712.68 80.2 714.16 77.98Q715.67 75.77 716.22 72.66Q716.84 69.15 715.84 66.18Q714.91 63.41 712.56 61.11Q707.7 56.36 698.63 54.76Q690.55 53.33 684.29 55.3Q680.35 56.54 677.28 58.91Q675.47 60.29 673.97 62.06L684.27 70.16Q685.62 68.58 687.31 67.61Q688.11 67.15 688.99 66.82Q689.75 66.54 690.53 66.38Q692.57 65.96 694.77 66.35Q697.73 66.87 699.36 68.54Q700.26 69.46 700.55 70.54Q700.79 71.43 700.61 72.42Q700.54 72.82 700.4 73.2Q700 74.33 699 75.25Q697.69 76.46 695.12 78.14Q691.4 80.53 689.26 82.73ZM685.38 108.16Q687.14 109.6 689.7 110.05Q692.45 110.54 694.69 109.69Q695.57 109.36 696.37 108.83Q697.82 107.86 698.69 106.52Q699.52 105.22 699.82 103.58Q700.16 101.61 699.64 99.9Q699.25 98.63 698.38 97.51Q697.91 96.91 697.35 96.41Q695.46 94.71 692.51 94.19Q689.53 93.66 687.17 94.64Q686.51 94.92 685.9 95.31Q684.75 96.04 683.96 97.06Q682.86 98.51 682.5 100.53Q682.21 102.17 682.55 103.67Q682.9 105.23 683.93 106.64Q684.57 107.5 685.38 108.16Z" fill="#FFFFFF" fill-opacity="1.000000" fill-rule="evenodd"/>
			<path id="?" d="M686.47 88.73Q687.15 84.91 689.26 82.73Q691.4 80.53 695.12 78.14Q697.69 76.46 699 75.25Q700.33 74.03 700.61 72.42Q701 70.21 699.36 68.54Q697.73 66.87 694.77 66.35Q691.72 65.81 688.99 66.82Q686.25 67.84 684.27 70.16L673.97 62.06Q678.04 57.27 684.29 55.3Q690.55 53.33 698.63 54.76Q707.7 56.36 712.56 61.11Q717.42 65.87 716.22 72.66Q715.67 75.77 714.16 77.98Q712.68 80.2 710.89 81.59Q709.13 82.97 706.4 84.6Q703.42 86.36 701.92 87.71Q700.41 89.05 700.04 91.12L686.47 88.73ZM689.7 110.05Q685.96 109.39 683.93 106.64Q681.9 103.88 682.5 100.53Q683.11 97.08 685.9 95.31Q688.69 93.52 692.51 94.19Q696.33 94.86 698.38 97.51Q700.43 100.14 699.82 103.58Q699.22 106.93 696.37 108.83Q693.52 110.73 689.7 110.05Z" stroke="#271A58" stroke-opacity="1.000000" stroke-width="0.806750"/>
			<rect id="Frame 2043683101" rx="29.500000" width="166.875168" height="222.833557" transform="translate(631.788086 -42.020508) rotate(10.000000)" stroke="#271A58" stroke-opacity="1.000000" stroke-width="1.000000"/>
			<rect id="Frame 2043683104" rx="29.500000" width="166.875168" height="222.833557" transform="translate(-108.878906 64.497070) rotate(10.000000)" fill="#1FA46C" fill-opacity="1.000000"/>
			<path id="?" d="M-51.41 189.25Q-53.52 191.43 -54.2 195.25L-40.62 197.64Q-40.41 196.42 -39.8 195.45Q-39.37 194.78 -38.75 194.23Q-37.25 192.88 -34.27 191.12Q-31.54 189.49 -29.78 188.11Q-27.99 186.71 -26.51 184.5Q-25 182.29 -24.45 179.18Q-23.83 175.67 -24.83 172.7Q-25.76 169.93 -28.11 167.63Q-32.97 162.87 -42.04 161.28Q-50.12 159.85 -56.38 161.82Q-60.32 163.06 -63.39 165.43Q-65.19 166.81 -66.7 168.58L-56.4 176.68Q-55.05 175.1 -53.36 174.13Q-52.56 173.67 -51.68 173.34Q-50.92 173.06 -50.14 172.9Q-48.1 172.48 -45.89 172.86Q-42.93 173.39 -41.31 175.05Q-40.41 175.97 -40.12 177.06Q-39.88 177.94 -40.06 178.94Q-40.13 179.34 -40.26 179.71Q-40.67 180.85 -41.67 181.77Q-42.98 182.98 -45.54 184.66Q-49.27 187.05 -51.41 189.25ZM-55.29 214.68Q-53.53 216.12 -50.97 216.57Q-48.22 217.05 -45.98 216.21Q-45.1 215.88 -44.3 215.35Q-42.85 214.38 -41.98 213.04Q-41.14 211.74 -40.85 210.1Q-40.5 208.13 -41.03 206.42Q-41.42 205.15 -42.29 204.03Q-42.76 203.43 -43.32 202.93Q-45.21 201.23 -48.16 200.71Q-51.14 200.18 -53.5 201.16Q-54.16 201.44 -54.77 201.83Q-55.92 202.56 -56.7 203.58Q-57.81 205.02 -58.17 207.04Q-58.46 208.69 -58.12 210.19Q-57.77 211.75 -56.74 213.15Q-56.1 214.02 -55.29 214.68Z" fill="#FFFFFF" fill-opacity="1.000000" fill-rule="evenodd"/>
			<path id="?" d="M-54.2 195.25Q-53.52 191.43 -51.41 189.25Q-49.27 187.05 -45.54 184.66Q-42.98 182.98 -41.67 181.77Q-40.34 180.54 -40.06 178.94Q-39.67 176.73 -41.31 175.05Q-42.93 173.39 -45.89 172.86Q-48.95 172.33 -51.68 173.34Q-54.42 174.36 -56.4 176.68L-66.7 168.58Q-62.63 163.79 -56.38 161.82Q-50.12 159.85 -42.04 161.28Q-32.97 162.87 -28.11 167.63Q-23.25 172.38 -24.45 179.18Q-25 182.29 -26.51 184.5Q-27.99 186.71 -29.78 188.11Q-31.54 189.49 -34.27 191.12Q-37.25 192.88 -38.75 194.23Q-40.26 195.57 -40.62 197.64L-54.2 195.25ZM-50.97 216.57Q-54.71 215.91 -56.74 213.15Q-58.76 210.4 -58.17 207.04Q-57.56 203.6 -54.77 201.83Q-51.97 200.03 -48.16 200.71Q-44.34 201.38 -42.29 204.03Q-40.24 206.65 -40.85 210.1Q-41.45 213.45 -44.3 215.35Q-47.15 217.24 -50.97 216.57Z" stroke="#271A58" stroke-opacity="1.000000" stroke-width="0.806750"/>
			<rect id="Frame 2043683104" rx="29.500000" width="166.875168" height="222.833557" transform="translate(-108.878906 64.497070) rotate(10.000000)" stroke="#271A58" stroke-opacity="1.000000" stroke-width="1.000000"/>
			<rect id="Frame 2043683096" rx="29.500000" width="166.875168" height="222.833557" transform="translate(66.150391 95.359375) rotate(10.000000)" fill="#F25050" fill-opacity="1.000000"/>
			<path id="?" d="M122.4 220.14Q119.78 222.84 118.94 227.57L135.77 230.54Q136.03 229.03 136.79 227.83Q137.32 226.99 138.09 226.31Q139.95 224.64 143.65 222.46Q147.03 220.44 149.21 218.73Q151.42 217 153.27 214.25Q155.13 211.51 155.81 207.66Q156.59 203.31 155.35 199.63Q154.19 196.19 151.28 193.34Q145.26 187.45 134.02 185.47Q124 183.7 116.24 186.14Q111.35 187.68 107.54 190.61Q105.31 192.33 103.44 194.52L116.21 204.55Q117.88 202.6 119.98 201.39Q120.97 200.82 122.06 200.42Q123 200.07 123.98 199.87Q126.5 199.35 129.23 199.83Q132.9 200.48 134.92 202.55Q136.04 203.68 136.39 205.03Q136.69 206.13 136.47 207.37Q136.38 207.86 136.21 208.32Q135.71 209.73 134.47 210.87Q132.84 212.37 129.67 214.45Q125.05 217.42 122.4 220.14ZM117.58 251.66Q119.77 253.45 122.95 254.01Q126.35 254.61 129.13 253.56Q130.22 253.15 131.21 252.49Q133.01 251.29 134.09 249.63Q135.12 248.02 135.48 245.98Q135.92 243.54 135.27 241.43Q134.78 239.85 133.7 238.46Q133.12 237.71 132.43 237.09Q130.08 234.99 126.43 234.34Q122.73 233.69 119.81 234.91Q118.99 235.25 118.23 235.73Q116.8 236.64 115.83 237.9Q114.46 239.69 114.02 242.2Q113.66 244.24 114.08 246.1Q114.51 248.03 115.79 249.77Q116.58 250.85 117.58 251.66Z" fill="#FFFFFF" fill-opacity="1.000000" fill-rule="evenodd"/>
			<path id="?" d="M118.94 227.57Q119.78 222.84 122.4 220.14Q125.05 217.42 129.67 214.45Q132.84 212.37 134.47 210.87Q136.12 209.35 136.47 207.37Q136.95 204.62 134.92 202.55Q132.9 200.48 129.23 199.83Q125.45 199.16 122.06 200.42Q118.67 201.68 116.21 204.55L103.44 194.52Q108.49 188.58 116.24 186.14Q124 183.7 134.02 185.47Q145.26 187.45 151.28 193.34Q157.31 199.24 155.81 207.66Q155.13 211.51 153.27 214.25Q151.42 217 149.21 218.73Q147.03 220.44 143.65 222.46Q139.95 224.64 138.09 226.31Q136.22 227.98 135.77 230.54L118.94 227.57ZM122.95 254.01Q118.31 253.19 115.79 249.77Q113.28 246.35 114.02 242.2Q114.77 237.93 118.23 235.73Q121.7 233.51 126.43 234.34Q131.16 235.18 133.7 238.46Q136.24 241.71 135.48 245.98Q134.75 250.14 131.21 252.49Q127.68 254.84 122.95 254.01Z" stroke="#271A58" stroke-opacity="1.000000" stroke-width="0.806750"/>
			<rect id="Frame 2043683096" rx="29.500000" width="166.875168" height="222.833557" transform="translate(66.150391 95.359375) rotate(10.000000)" stroke="#271A58" stroke-opacity="1.000000" stroke-width="1.000000"/>
			<rect id="Frame 2043683112" rx="29.500000" width="166.875168" height="222.833557" transform="translate(241.179688 126.221680) rotate(10.000000)" fill="#009EE4" fill-opacity="1.000000"/>
			<path id="?" d="M298.65 250.97Q296.54 253.15 295.86 256.97L309.44 259.36Q309.65 258.15 310.26 257.18Q310.69 256.5 311.31 255.95Q312.81 254.6 315.79 252.84Q318.52 251.21 320.28 249.83Q322.07 248.44 323.55 246.22Q325.06 244.01 325.61 240.9Q326.23 237.39 325.23 234.43Q324.3 231.65 321.95 229.35Q317.09 224.6 308.02 223Q299.94 221.58 293.68 223.54Q289.74 224.79 286.67 227.15Q284.87 228.54 283.36 230.31L293.66 238.4Q295.01 236.82 296.7 235.85Q297.5 235.39 298.38 235.07Q299.14 234.78 299.92 234.62Q301.96 234.2 304.17 234.59Q307.13 235.11 308.75 236.78Q309.65 237.7 309.94 238.78Q310.18 239.67 310 240.67Q309.93 241.06 309.8 241.44Q309.39 242.57 308.39 243.49Q307.08 244.7 304.51 246.38Q300.79 248.78 298.65 250.97ZM294.77 276.41Q296.53 277.84 299.09 278.29Q301.84 278.78 304.08 277.93Q304.96 277.6 305.76 277.07Q307.21 276.1 308.08 274.76Q308.92 273.47 309.21 271.82Q309.56 269.85 309.03 268.15Q308.64 266.87 307.77 265.75Q307.3 265.15 306.74 264.65Q304.85 262.95 301.9 262.43Q298.92 261.91 296.56 262.89Q295.9 263.16 295.29 263.55Q294.14 264.28 293.35 265.3Q292.25 266.75 291.89 268.77Q291.6 270.41 291.94 271.91Q292.29 273.47 293.32 274.88Q293.96 275.75 294.77 276.41Z" fill="#FFFFFF" fill-opacity="1.000000" fill-rule="evenodd"/>
			<path id="?" d="M295.86 256.97Q296.54 253.15 298.65 250.97Q300.79 248.78 304.51 246.38Q307.08 244.7 308.39 243.49Q309.72 242.27 310 240.67Q310.39 238.45 308.75 236.78Q307.13 235.11 304.17 234.59Q301.11 234.05 298.38 235.07Q295.64 236.08 293.66 238.4L283.36 230.31Q287.43 225.51 293.68 223.54Q299.94 221.58 308.02 223Q317.09 224.6 321.95 229.35Q326.81 234.11 325.61 240.9Q325.06 244.01 323.55 246.22Q322.07 248.44 320.28 249.83Q318.52 251.21 315.79 252.84Q312.81 254.6 311.31 255.95Q309.8 257.3 309.44 259.36L295.86 256.97ZM299.09 278.29Q295.35 277.64 293.32 274.88Q291.3 272.12 291.89 268.77Q292.5 265.32 295.29 263.55Q298.09 261.76 301.9 262.43Q305.72 263.1 307.77 265.75Q309.82 268.38 309.21 271.82Q308.61 275.17 305.76 277.07Q302.91 278.97 299.09 278.29Z" stroke="#271A58" stroke-opacity="1.000000" stroke-width="0.806750"/>
			<rect id="Frame 2043683112" rx="29.500000" width="166.875168" height="222.833557" transform="translate(241.179688 126.221680) rotate(10.000000)" stroke="#271A58" stroke-opacity="1.000000" stroke-width="1.000000"/>
			<rect id="Frame 2043683098" rx="29.500000" width="166.875168" height="222.833557" transform="translate(416.209961 157.083984) rotate(10.000000)" fill="#99D100" fill-opacity="1.000000"/>
			<path id="?" d="M472.46 281.86Q469.84 284.57 469 289.3L485.83 292.26Q486.09 290.76 486.85 289.56Q487.38 288.72 488.15 288.03Q490.01 286.36 493.71 284.18Q497.09 282.16 499.27 280.45Q501.48 278.72 503.33 275.98Q505.19 273.24 505.87 269.38Q506.65 265.03 505.41 261.35Q504.25 257.92 501.34 255.07Q495.32 249.17 484.08 247.19Q474.06 245.42 466.29 247.86Q461.41 249.4 457.6 252.33Q455.37 254.05 453.5 256.25L466.27 266.28Q467.94 264.32 470.04 263.12Q471.03 262.55 472.12 262.15Q473.06 261.79 474.04 261.59Q476.56 261.07 479.29 261.56Q482.96 262.2 484.98 264.27Q486.1 265.41 486.45 266.75Q486.75 267.85 486.53 269.09Q486.44 269.58 486.27 270.05Q485.77 271.45 484.53 272.59Q482.9 274.09 479.73 276.17Q475.11 279.14 472.46 281.86ZM467.64 313.39Q469.83 315.17 473.01 315.73Q476.41 316.33 479.19 315.28Q480.28 314.88 481.27 314.21Q483.07 313.01 484.15 311.35Q485.18 309.75 485.54 307.71Q485.98 305.26 485.33 303.15Q484.84 301.57 483.76 300.18Q483.18 299.44 482.49 298.82Q480.14 296.71 476.49 296.07Q472.79 295.42 469.87 296.63Q469.05 296.97 468.29 297.46Q466.86 298.36 465.89 299.63Q464.52 301.42 464.08 303.92Q463.72 305.96 464.14 307.82Q464.57 309.75 465.85 311.5Q466.64 312.57 467.64 313.39Z" fill="#FFFFFF" fill-opacity="1.000000" fill-rule="evenodd"/>
			<path id="?" d="M469 289.3Q469.84 284.57 472.46 281.86Q475.11 279.14 479.73 276.17Q482.9 274.09 484.53 272.59Q486.18 271.07 486.53 269.09Q487.01 266.34 484.98 264.27Q482.96 262.2 479.29 261.56Q475.51 260.89 472.12 262.15Q468.73 263.41 466.27 266.28L453.5 256.25Q458.55 250.31 466.29 247.86Q474.06 245.42 484.08 247.19Q495.32 249.17 501.34 255.07Q507.37 260.96 505.87 269.38Q505.19 273.24 503.33 275.98Q501.48 278.72 499.27 280.45Q497.09 282.16 493.71 284.18Q490.01 286.36 488.15 288.03Q486.28 289.7 485.83 292.26L469 289.3ZM473.01 315.73Q468.37 314.91 465.85 311.5Q463.34 308.08 464.08 303.92Q464.83 299.65 468.29 297.46Q471.76 295.23 476.49 296.07Q481.22 296.9 483.76 300.18Q486.3 303.44 485.54 307.71Q484.81 311.86 481.27 314.21Q477.74 316.57 473.01 315.73Z" stroke="#271A58" stroke-opacity="1.000000" stroke-width="0.806750"/>
			<rect id="Frame 2043683098" rx="29.500000" width="166.875168" height="222.833557" transform="translate(416.209961 157.083984) rotate(10.000000)" stroke="#271A58" stroke-opacity="1.000000" stroke-width="1.000000"/>
			<rect id="Frame 2043683102" rx="29.500000" width="166.875168" height="222.833557" transform="translate(591.239258 187.946289) rotate(10.000000)" fill="#FFC700" fill-opacity="1.000000"/>
			<path id="?" d="M648.71 312.7Q646.6 314.88 645.92 318.7L659.49 321.09Q659.71 319.87 660.32 318.9Q660.75 318.23 661.37 317.68Q662.87 316.33 665.85 314.57Q668.58 312.94 670.34 311.56Q672.13 310.16 673.61 307.95Q675.12 305.74 675.67 302.63Q676.29 299.12 675.29 296.15Q674.36 293.38 672.01 291.08Q667.15 286.32 658.08 284.73Q650 283.3 643.74 285.27Q639.8 286.51 636.73 288.88Q634.92 290.26 633.42 292.03L643.72 300.13Q645.07 298.55 646.76 297.57Q647.56 297.12 648.44 296.79Q649.2 296.51 649.98 296.35Q652.02 295.93 654.22 296.31Q657.18 296.84 658.81 298.5Q659.71 299.42 660 300.51Q660.24 301.39 660.06 302.39Q659.99 302.79 659.85 303.16Q659.45 304.3 658.45 305.22Q657.14 306.43 654.57 308.11Q650.85 310.5 648.71 312.7ZM644.83 338.13Q646.59 339.57 649.15 340.02Q651.9 340.5 654.14 339.66Q655.02 339.33 655.82 338.8Q657.27 337.83 658.14 336.49Q658.97 335.19 659.27 333.55Q659.62 331.58 659.09 329.87Q658.7 328.6 657.83 327.48Q657.36 326.87 656.8 326.37Q654.91 324.68 651.96 324.16Q648.98 323.63 646.62 324.61Q645.96 324.89 645.35 325.28Q644.2 326.01 643.41 327.03Q642.31 328.47 641.95 330.49Q641.66 332.14 642 333.64Q642.35 335.2 643.38 336.6Q644.02 337.47 644.83 338.13Z" fill="#FFFFFF" fill-opacity="1.000000" fill-rule="evenodd"/>
			<path id="?" d="M645.92 318.7Q646.6 314.88 648.71 312.7Q650.85 310.5 654.57 308.11Q657.14 306.43 658.45 305.22Q659.78 303.99 660.06 302.39Q660.45 300.18 658.81 298.5Q657.18 296.84 654.22 296.31Q651.17 295.78 648.44 296.79Q645.7 297.81 643.72 300.13L633.42 292.03Q637.49 287.24 643.74 285.27Q650 283.3 658.08 284.73Q667.15 286.32 672.01 291.08Q676.87 295.83 675.67 302.63Q675.12 305.74 673.61 307.95Q672.13 310.16 670.34 311.56Q668.58 312.94 665.85 314.57Q662.87 316.33 661.37 317.68Q659.86 319.02 659.49 321.09L645.92 318.7ZM649.15 340.02Q645.41 339.36 643.38 336.6Q641.35 333.85 641.95 330.49Q642.56 327.05 645.35 325.28Q648.14 323.48 651.96 324.16Q655.78 324.83 657.83 327.48Q659.88 330.1 659.27 333.55Q658.67 336.9 655.82 338.8Q652.97 340.69 649.15 340.02Z" stroke="#271A58" stroke-opacity="1.000000" stroke-width="0.806750"/>
			<rect id="Frame 2043683102" rx="29.500000" width="166.875168" height="222.833557" transform="translate(591.239258 187.946289) rotate(10.000000)" stroke="#271A58" stroke-opacity="1.000000" stroke-width="1.000000"/>
			<rect id="Frame 2043683109" rx="29.500000" width="166.875168" height="222.833557" transform="translate(-149.427734 294.463867) rotate(10.000000)" fill="#009EE4" fill-opacity="1.000000"/>
			<path id="?" d="M-91.96 419.22Q-94.07 421.4 -94.75 425.21L-81.17 427.61Q-80.96 426.39 -80.35 425.42Q-79.92 424.75 -79.3 424.19Q-77.79 422.85 -74.81 421.09Q-72.09 419.46 -70.33 418.08Q-68.54 416.68 -67.06 414.47Q-65.55 412.26 -65 409.15Q-64.38 405.64 -65.37 402.67Q-66.31 399.89 -68.66 397.6Q-73.52 392.84 -82.59 391.24Q-90.67 389.82 -96.93 391.78Q-100.87 393.03 -103.94 395.39Q-105.74 396.78 -107.25 398.55L-96.95 406.64Q-95.6 405.07 -93.91 404.09Q-93.11 403.63 -92.23 403.31Q-91.47 403.03 -90.68 402.86Q-88.65 402.44 -86.44 402.83Q-83.48 403.35 -81.86 405.02Q-80.96 405.94 -80.67 407.02Q-80.43 407.91 -80.61 408.91Q-80.68 409.31 -80.81 409.68Q-81.22 410.81 -82.22 411.74Q-83.53 412.94 -86.09 414.62Q-89.82 417.02 -91.96 419.22ZM-95.84 444.65Q-94.08 446.09 -91.52 446.54Q-88.77 447.02 -86.53 446.18Q-85.65 445.85 -84.85 445.31Q-83.39 444.35 -82.53 443Q-81.69 441.71 -81.4 440.07Q-81.05 438.09 -81.58 436.39Q-81.97 435.12 -82.84 433.99Q-83.31 433.39 -83.86 432.89Q-85.76 431.19 -88.71 430.67Q-91.69 430.15 -94.05 431.13Q-94.71 431.4 -95.32 431.79Q-96.47 432.53 -97.25 433.55Q-98.36 434.99 -98.72 437.01Q-99.01 438.66 -98.67 440.16Q-98.32 441.72 -97.29 443.12Q-96.65 443.99 -95.84 444.65Z" fill="#FFFFFF" fill-opacity="1.000000" fill-rule="evenodd"/>
			<path id="?" d="M-94.75 425.21Q-94.07 421.4 -91.96 419.22Q-89.82 417.02 -86.09 414.62Q-83.53 412.94 -82.22 411.74Q-80.89 410.51 -80.61 408.91Q-80.21 406.69 -81.86 405.02Q-83.48 403.35 -86.44 402.83Q-89.5 402.29 -92.23 403.31Q-94.96 404.32 -96.95 406.64L-107.25 398.55Q-103.17 393.76 -96.93 391.78Q-90.67 389.82 -82.59 391.24Q-73.52 392.84 -68.66 397.6Q-63.8 402.35 -65 409.15Q-65.55 412.26 -67.06 414.47Q-68.54 416.68 -70.33 418.08Q-72.09 419.46 -74.81 421.09Q-77.79 422.85 -79.3 424.19Q-80.81 425.54 -81.17 427.61L-94.75 425.21ZM-91.52 446.54Q-95.26 445.88 -97.29 443.12Q-99.31 440.36 -98.72 437.01Q-98.11 433.57 -95.32 431.79Q-92.52 430 -88.71 430.67Q-84.89 431.35 -82.84 433.99Q-80.79 436.62 -81.4 440.07Q-82 443.42 -84.85 445.31Q-87.7 447.21 -91.52 446.54Z" stroke="#271A58" stroke-opacity="1.000000" stroke-width="0.806750"/>
			<rect id="Frame 2043683109" rx="29.500000" width="166.875168" height="222.833557" transform="translate(-149.427734 294.463867) rotate(10.000000)" stroke="#271A58" stroke-opacity="1.000000" stroke-width="1.000000"/>
			<rect id="Frame 2043683105" rx="29.500000" width="166.875168" height="222.833557" transform="translate(25.601562 325.326172) rotate(10.000000)" fill="#99D100" fill-opacity="1.000000"/>
			<path id="?" d="M81.85 450.11Q79.23 452.81 78.39 457.54L95.22 460.51Q95.48 459 96.24 457.8Q96.77 456.96 97.54 456.28Q99.4 454.61 103.1 452.43Q106.48 450.4 108.66 448.69Q110.87 446.97 112.72 444.22Q114.58 441.48 115.27 437.63Q116.04 433.27 114.8 429.6Q113.65 426.16 110.73 423.31Q104.71 417.41 93.47 415.43Q83.45 413.67 75.69 416.11Q70.81 417.65 66.99 420.58Q64.76 422.29 62.89 424.49L75.66 434.52Q77.33 432.57 79.43 431.36Q80.43 430.79 81.51 430.39Q82.45 430.04 83.43 429.84Q85.95 429.32 88.68 429.8Q92.35 430.44 94.37 432.51Q95.49 433.65 95.84 434.99Q96.14 436.09 95.92 437.33Q95.83 437.82 95.66 438.29Q95.16 439.69 93.92 440.83Q92.3 442.33 89.12 444.41Q84.5 447.38 81.85 450.11ZM77.04 481.63Q79.22 483.41 82.4 483.97Q85.8 484.57 88.58 483.53Q89.67 483.12 90.66 482.46Q92.46 481.26 93.54 479.59Q94.57 477.99 94.93 475.95Q95.37 473.51 94.72 471.39Q94.24 469.82 93.15 468.42Q92.57 467.68 91.88 467.06Q89.54 464.96 85.88 464.31Q82.18 463.66 79.26 464.87Q78.44 465.21 77.68 465.7Q76.25 466.61 75.29 467.87Q73.91 469.66 73.47 472.17Q73.11 474.2 73.53 476.06Q73.96 478 75.24 479.74Q76.04 480.81 77.04 481.63Z" fill="#FFFFFF" fill-opacity="1.000000" fill-rule="evenodd"/>
			<path id="?" d="M78.39 457.54Q79.23 452.81 81.85 450.11Q84.5 447.38 89.12 444.41Q92.3 442.33 93.92 440.83Q95.57 439.32 95.92 437.33Q96.41 434.59 94.37 432.51Q92.35 430.44 88.68 429.8Q84.9 429.13 81.51 430.39Q78.12 431.65 75.66 434.52L62.89 424.49Q67.95 418.55 75.69 416.11Q83.45 413.67 93.47 415.43Q104.71 417.41 110.73 423.31Q116.76 429.2 115.27 437.63Q114.58 441.48 112.72 444.22Q110.87 446.97 108.66 448.69Q106.48 450.4 103.1 452.43Q99.4 454.61 97.54 456.28Q95.67 457.95 95.22 460.51L78.39 457.54ZM82.4 483.97Q77.76 483.16 75.24 479.74Q72.73 476.32 73.47 472.17Q74.22 467.9 77.68 465.7Q81.15 463.48 85.88 464.31Q90.61 465.15 93.15 468.42Q95.69 471.68 94.93 475.95Q94.2 480.1 90.66 482.46Q87.13 484.81 82.4 483.97Z" stroke="#271A58" stroke-opacity="1.000000" stroke-width="0.806750"/>
			<rect id="Frame 2043683105" rx="29.500000" width="166.875168" height="222.833557" transform="translate(25.601562 325.326172) rotate(10.000000)" stroke="#271A58" stroke-opacity="1.000000" stroke-width="1.000000"/>
			<rect id="Frame 2043683106" rx="29.500000" width="166.875168" height="222.833557" transform="translate(200.630859 356.188477) rotate(10.000000)" fill="#009EE4" fill-opacity="1.000000"/>
			<path id="?" d="M256.88 480.97Q254.26 483.67 253.42 488.4L270.25 491.37Q270.51 489.86 271.27 488.66Q271.8 487.82 272.57 487.14Q274.43 485.47 278.13 483.29Q281.51 481.27 283.69 479.56Q285.9 477.83 287.75 475.08Q289.61 472.34 290.29 468.49Q291.07 464.14 289.83 460.46Q288.67 457.02 285.76 454.17Q279.74 448.28 268.5 446.3Q258.48 444.53 250.72 446.97Q245.84 448.51 242.02 451.44Q239.79 453.16 237.92 455.35L250.69 465.38Q252.36 463.43 254.46 462.22Q255.45 461.65 256.54 461.25Q257.48 460.9 258.46 460.7Q260.98 460.18 263.71 460.66Q267.38 461.31 269.4 463.38Q270.52 464.51 270.87 465.86Q271.17 466.96 270.95 468.19Q270.86 468.69 270.69 469.15Q270.19 470.56 268.95 471.7Q267.32 473.2 264.15 475.28Q259.53 478.25 256.88 480.97ZM252.07 512.49Q254.25 514.28 257.43 514.84Q260.83 515.44 263.61 514.39Q264.7 513.98 265.69 513.32Q267.49 512.12 268.57 510.45Q269.6 508.85 269.96 506.81Q270.4 504.37 269.75 502.26Q269.26 500.68 268.18 499.29Q267.6 498.54 266.91 497.92Q264.56 495.82 260.91 495.17Q257.21 494.52 254.29 495.74Q253.47 496.07 252.71 496.56Q251.28 497.47 250.32 498.73Q248.94 500.52 248.5 503.03Q248.14 505.07 248.56 506.93Q248.99 508.86 250.27 510.6Q251.06 511.67 252.07 512.49Z" fill="#FFFFFF" fill-opacity="1.000000" fill-rule="evenodd"/>
			<path id="?" d="M253.42 488.4Q254.26 483.67 256.88 480.97Q259.53 478.25 264.15 475.28Q267.32 473.2 268.95 471.7Q270.6 470.18 270.95 468.19Q271.43 465.45 269.4 463.38Q267.38 461.31 263.71 460.66Q259.93 459.99 256.54 461.25Q253.15 462.51 250.69 465.38L237.92 455.35Q242.98 449.41 250.72 446.97Q258.48 444.53 268.5 446.3Q279.74 448.28 285.76 454.17Q291.79 460.06 290.29 468.49Q289.61 472.34 287.75 475.08Q285.9 477.83 283.69 479.56Q281.51 481.27 278.13 483.29Q274.43 485.47 272.57 487.14Q270.7 488.81 270.25 491.37L253.42 488.4ZM257.43 514.84Q252.79 514.02 250.27 510.6Q247.76 507.18 248.5 503.03Q249.25 498.76 252.71 496.56Q256.18 494.34 260.91 495.17Q265.64 496.01 268.18 499.29Q270.72 502.54 269.96 506.81Q269.23 510.97 265.69 513.32Q262.16 515.67 257.43 514.84Z" stroke="#271A58" stroke-opacity="1.000000" stroke-width="0.806750"/>
			<rect id="Frame 2043683106" rx="29.500000" width="166.875168" height="222.833557" transform="translate(200.630859 356.188477) rotate(10.000000)" stroke="#271A58" stroke-opacity="1.000000" stroke-width="1.000000"/>
			<rect id="Frame 2043683107" rx="29.500000" width="166.875168" height="222.833557" transform="translate(375.660156 387.050781) rotate(10.000000)" fill="#AD61FF" fill-opacity="1.000000"/>
			<path id="?" d="M433.13 511.8Q431.02 513.98 430.34 517.8L443.92 520.19Q444.13 518.98 444.74 518.01Q445.17 517.33 445.79 516.78Q447.29 515.43 450.27 513.67Q453 512.04 454.76 510.66Q456.55 509.27 458.03 507.05Q459.54 504.84 460.09 501.73Q460.71 498.22 459.71 495.26Q458.78 492.48 456.43 490.18Q451.57 485.43 442.5 483.83Q434.42 482.4 428.16 484.37Q424.22 485.61 421.15 487.98Q419.34 489.36 417.84 491.13L428.14 499.23Q429.49 497.65 431.18 496.68Q431.98 496.22 432.86 495.89Q433.62 495.61 434.4 495.45Q436.44 495.03 438.65 495.42Q441.61 495.94 443.23 497.61Q444.13 498.53 444.42 499.61Q444.66 500.5 444.48 501.5Q444.41 501.89 444.28 502.27Q443.87 503.4 442.87 504.32Q441.56 505.53 438.99 507.21Q435.27 509.61 433.13 511.8ZM429.25 537.23Q431.01 538.67 433.57 539.12Q436.32 539.61 438.56 538.76Q439.44 538.43 440.24 537.9Q441.69 536.93 442.56 535.59Q443.4 534.3 443.69 532.65Q444.04 530.68 443.51 528.98Q443.12 527.7 442.25 526.58Q441.78 525.98 441.22 525.48Q439.33 523.78 436.38 523.26Q433.4 522.74 431.04 523.71Q430.38 523.99 429.77 524.38Q428.62 525.11 427.84 526.13Q426.73 527.58 426.37 529.6Q426.08 531.24 426.42 532.74Q426.77 534.3 427.8 535.71Q428.44 536.57 429.25 537.23Z" fill="#FFFFFF" fill-opacity="1.000000" fill-rule="evenodd"/>
			<path id="?" d="M430.34 517.8Q431.02 513.98 433.13 511.8Q435.27 509.61 438.99 507.21Q441.56 505.53 442.87 504.32Q444.2 503.1 444.48 501.5Q444.87 499.28 443.23 497.61Q441.61 495.94 438.65 495.42Q435.59 494.88 432.86 495.89Q430.12 496.91 428.14 499.23L417.84 491.13Q421.91 486.34 428.16 484.37Q434.42 482.4 442.5 483.83Q451.57 485.43 456.43 490.18Q461.29 494.94 460.09 501.73Q459.54 504.84 458.03 507.05Q456.55 509.27 454.76 510.66Q453 512.04 450.27 513.67Q447.29 515.43 445.79 516.78Q444.28 518.13 443.92 520.19L430.34 517.8ZM433.57 539.12Q429.83 538.46 427.8 535.71Q425.78 532.95 426.37 529.6Q426.98 526.15 429.77 524.38Q432.57 522.59 436.38 523.26Q440.2 523.93 442.25 526.58Q444.3 529.21 443.69 532.65Q443.09 536 440.24 537.9Q437.39 539.8 433.57 539.12Z" stroke="#271A58" stroke-opacity="1.000000" stroke-width="0.806750"/>
			<rect id="Frame 2043683107" rx="29.500000" width="166.875168" height="222.833557" transform="translate(375.660156 387.050781) rotate(10.000000)" stroke="#271A58" stroke-opacity="1.000000" stroke-width="1.000000"/>
			<rect id="Frame 2043683108" rx="29.500000" width="166.875168" height="222.833557" transform="translate(550.689453 417.913574) rotate(10.000000)" fill="#565EEF" fill-opacity="1.000000"/>
			<path id="?" d="M608.16 542.66Q606.05 544.84 605.37 548.66L618.94 551.06Q619.16 549.84 619.77 548.87Q620.2 548.2 620.82 547.64Q622.32 546.29 625.3 544.53Q628.03 542.9 629.79 541.53Q631.58 540.13 633.06 537.92Q634.57 535.71 635.12 532.6Q635.74 529.09 634.74 526.12Q633.81 523.34 631.46 521.05Q626.6 516.29 617.53 514.69Q609.45 513.27 603.19 515.23Q599.25 516.48 596.18 518.84Q594.37 520.23 592.87 522L603.17 530.09Q604.52 528.52 606.21 527.54Q607.01 527.08 607.89 526.76Q608.65 526.47 609.43 526.31Q611.47 525.89 613.67 526.28Q616.64 526.8 618.26 528.47Q619.16 529.39 619.45 530.47Q619.69 531.36 619.51 532.36Q619.44 532.76 619.31 533.13Q618.9 534.26 617.9 535.18Q616.59 536.39 614.02 538.07Q610.3 540.47 608.16 542.66ZM604.28 568.1Q606.04 569.53 608.6 569.99Q611.35 570.47 613.59 569.63Q614.47 569.3 615.27 568.76Q616.72 567.8 617.59 566.45Q618.42 565.16 618.71 563.51Q619.07 561.54 618.54 559.84Q618.15 558.57 617.28 557.44Q616.81 556.84 616.25 556.34Q614.36 554.64 611.41 554.12Q608.43 553.6 606.07 554.58Q605.41 554.85 604.8 555.24Q603.65 555.98 602.86 557Q601.76 558.44 601.4 560.46Q601.11 562.1 601.45 563.61Q601.8 565.16 602.83 566.57Q603.47 567.44 604.28 568.1Z" fill="#FFFFFF" fill-opacity="1.000000" fill-rule="evenodd"/>
			<path id="?" d="M605.37 548.66Q606.05 544.84 608.16 542.66Q610.3 540.47 614.02 538.07Q616.59 536.39 617.9 535.18Q619.23 533.96 619.51 532.36Q619.9 530.14 618.26 528.47Q616.64 526.8 613.67 526.28Q610.62 525.74 607.89 526.76Q605.15 527.77 603.17 530.09L592.87 522Q596.94 517.21 603.19 515.23Q609.45 513.27 617.53 514.69Q626.6 516.29 631.46 521.05Q636.32 525.8 635.12 532.6Q634.57 535.71 633.06 537.92Q631.58 540.13 629.79 541.53Q628.03 542.9 625.3 544.53Q622.32 546.29 620.82 547.64Q619.31 548.99 618.94 551.06L605.37 548.66ZM608.6 569.99Q604.86 569.33 602.83 566.57Q600.8 563.81 601.4 560.46Q602.01 557.02 604.8 555.24Q607.59 553.45 611.41 554.12Q615.23 554.8 617.28 557.44Q619.33 560.07 618.71 563.51Q618.12 566.87 615.27 568.76Q612.42 570.66 608.6 569.99Z" stroke="#271A58" stroke-opacity="1.000000" stroke-width="0.806750"/>
			<rect id="Frame 2043683108" rx="29.500000" width="166.875168" height="222.833557" transform="translate(550.689453 417.913574) rotate(10.000000)" stroke="#271A58" stroke-opacity="1.000000" stroke-width="1.000000"/>
			<g filter="url(#filter_13_2295_dd)">
				<rect id="Frame 2043683065" rx="30.500000" width="218.818085" height="291.424133" transform="translate(221.495117 87.971680) rotate(9.999999)" fill="#FFC700" fill-opacity="1.000000"/>
				<rect id="Frame 2043683065" rx="30.500000" width="218.818085" height="291.424133" transform="translate(221.495117 87.971680) rotate(9.999999)" stroke="#271A58" stroke-opacity="1.000000" stroke-width="1.000000"/>
				<rect id="Frame 2043683065" rx="30.500000" width="218.818085" height="291.424133" transform="translate(221.495117 87.971680) rotate(9.999999)" stroke="#000000" stroke-opacity="0.200000" stroke-width="1.000000"/>
			</g>
			<path id="✊" d="" stroke="#271A58" stroke-opacity="1.000000" stroke-width="1.000000"/>
		</g>
	</g>
</svg>
